<?xml version="1.0" encoding="utf-8"?>
<!-- Generator: Adobe Illustrator 21.0.0, SVG Export Plug-In . SVG Version: 6.00 Build 0)  -->
<svg version="1.1" id="Слой_1" xmlns="http://www.w3.org/2000/svg" xmlns:xlink="http://www.w3.org/1999/xlink" x="0px" y="0px"
	 viewBox="0 0 308.7 70.9" style="enable-background:new 0 0 308.7 70.9;" xml:space="preserve">
<style type="text/css">
	.st0{clip-path:url(#SVGID_2_);fill:#06509E;}
	.st1{clip-path:url(#SVGID_4_);fill:#06509E;}
	.st2{clip-path:url(#SVGID_6_);fill:#06509E;}
	.st3{clip-path:url(#SVGID_8_);fill:url(#SVGID_9_);}
</style>
<g>
	<g>
		<g>
			<defs>
				<rect id="SVGID_1_" y="0" width="308.7" height="70.9"/>
			</defs>
			<clipPath id="SVGID_2_">
				<use xlink:href="#SVGID_1_"  style="overflow:visible;"/>
			</clipPath>
			<path class="st0" d="M28.3,18.6c-5.2,0-8.9,0.9-11.2,2.7s-3.4,4.8-3.4,8.9c0,3.6,1.1,6.1,3.3,7.5c2.2,1.5,6,2.2,11.3,2.2h20.5
				v5.7H27.7c-4.7,0-8.3-0.2-11-0.6c-2.7-0.4-5.2-1.2-7.5-2.2c-3-1.3-5.3-3.1-6.8-5.2c-1.5-2.1-2.3-4.7-2.3-7.6
				c0-5.7,2.3-10,6.8-12.7c4.6-2.7,11.6-4.1,21.2-4.1h20.8v5.5L28.3,18.6L28.3,18.6z M54.2,29c0-5.6,2.4-9.7,7.3-12.5
				c4.9-2.7,12.3-4.1,22.3-4.1c10.1,0,17.5,1.4,22.4,4.1c4.8,2.8,7.3,7,7.3,12.8c0,5.7-2.4,10-7.3,12.8c-4.8,2.8-12.3,4.2-22.4,4.2
				c-10.2,0-17.7-1.4-22.5-4.2C56.6,39.3,54.2,34.9,54.2,29 M83.9,18c-5.4,0-9.4,0.9-12,2.7c-2.7,1.8-4,4.6-4,8.3
				c0,4,1.3,6.9,3.9,8.8c2.6,1.9,6.6,2.8,12.1,2.8c5.4,0,9.5-0.9,12.1-2.8c2.6-1.8,3.9-4.7,3.9-8.5c0-3.9-1.3-6.7-3.9-8.6
				C93.3,18.9,89.3,18,83.9,18 M145.6,45.6c-5.5,0-9.7-0.3-12.4-0.8s-5.1-1.4-7.2-2.6c-2-1.1-3.4-2.4-4.2-3.8
				c-0.8-1.4-1.2-3.4-1.2-6V13.1h12.5v19.1c0,1.9,0.2,3.2,0.5,4s0.8,1.4,1.6,1.9c1.2,0.8,2.6,1.3,4.4,1.6c1.7,0.3,4.1,0.5,7.2,0.5
				h14.6v5.4L145.6,45.6L145.6,45.6z M242,45.6h-13.1V13.1H242V45.6z M282.2,18.9h-15.3v8.2h15.3c4.2,0,7-0.3,8.7-0.9
				c1.6-0.6,2.4-1.7,2.4-3.2s-0.8-2.5-2.4-3.2C289.3,19.2,286.4,18.9,282.2,18.9 M254.4,13.1h30.8c7.2,0,12.4,0.8,15.8,2.4
				c3.3,1.6,5,4.1,5,7.4c0,2.5-1,4.5-3.1,6.1s-5,2.6-8.9,3l14.8,13.6h-14.1l-13.1-12.8h-14.7v12.8h-12.5L254.4,13.1L254.4,13.1z"/>
		</g>
	</g>
	<g>
		<g>
			<defs>
				<rect id="SVGID_3_" y="0" width="308.7" height="70.9"/>
			</defs>
			<clipPath id="SVGID_4_">
				<use xlink:href="#SVGID_3_"  style="overflow:visible;"/>
			</clipPath>
			<path class="st1" d="M14.6,60.2c-1.2-0.4-2.3-0.6-3.6-0.6c-3,0-5.1,1-5.1,2.7c0,1.8,2,2.5,3.9,3.1c2.1,0.6,3.4,1,3.4,2.4
				c0,1.3-1.4,2-3.5,2c-1.2,0-2.6-0.2-4-0.6l-0.1,1.3C7,70.9,8.3,71,9.6,71c4,0,5.5-1.6,5.5-3.1c0-1.9-2.1-2.7-3.5-3.1
				C9,64,7.7,63.7,7.7,62.4c0-1.2,1.7-1.5,3.2-1.5c1.4,0,2.5,0.2,3.6,0.5L14.6,60.2z M22,65.3c0,3.4,2.8,5.6,7.1,5.6
				c4.2,0,7.1-2.2,7.1-5.6s-2.8-5.7-7.1-5.7C24.8,59.6,22,61.9,22,65.3 M23.9,65.3c0-2.1,1.5-4.5,5.1-4.5s5.1,2.4,5.1,4.5
				s-1.5,4.5-5.1,4.5C25.5,69.8,23.9,67.4,23.9,65.3 M46.7,70.8h1.9V61h3.6v-1.1h-3.6v-2.4c0-0.8,0.2-1.9,2-1.9c0.6,0,1.3,0,1.9,0.2
				v-1.1c-0.1,0-1.1-0.2-2.1-0.2c-1.2,0-3.6,0.5-3.6,3.1v2.2h-3.2v1.1h3.2L46.7,70.8L46.7,70.8z M62.3,57.1v2.7h-3.1v1.1h3.1v6.8
				c0,1.2,0.1,3.2,3.5,3.2c0.5,0,1.3,0,2.1-0.2v-1.1c-0.6,0.2-1.2,0.2-1.9,0.2c-1.2,0-1.8-0.3-1.8-2.1V61h3.6v-1.1h-3.6v-3.2
				L62.3,57.1z M73.9,59.8l4.6,11h2.4l3.9-8.8l0.3-1h0.1l0.3,1l3.9,8.8h2.4l4.6-11h-2L91,68.2l-0.5,1.5h-0.1l-0.5-1.5l-3.7-8.4h-2.4
				l-3.7,8.4l-0.5,1.5h-0.1L79,68.2l-3.4-8.4C75.6,59.8,73.9,59.8,73.9,59.8z M103.9,61.6c1.5-0.6,3.1-0.8,4.6-0.8
				c3.5,0,3.5,2.2,3.5,2.9v0.4h-1c-3.1,0-8.8,0.2-8.8,3.8c0,1.7,1.7,3.1,5,3.1c1.6,0,3.7-0.3,5-2h0.1v1.9h1.7l-0.1-2.4v-4.7
				c0-1.5-0.4-4.1-5.4-4.1c-1.8,0-3.3,0.3-4.6,0.7C103.9,60.4,103.9,61.6,103.9,61.6z M112,65.2V66c0,2.4-1.8,3.8-4.8,3.8
				c-1.7,0-3-0.9-3-2.1c0-2.2,3.3-2.5,6.1-2.5C110.3,65.2,112,65.2,112,65.2z M124.8,70.8v-6.3c0-1.6,1.1-3.6,3.4-3.6
				c0.6,0,1.2,0,1.8,0.2v-1.3c-0.7-0.2-1.3-0.2-2-0.2c-1.8,0-3,1.3-3.4,2.5l0,0v-2.4h-1.8l0.1,2v9h1.9
				C124.8,70.7,124.8,70.8,124.8,70.8z M148.9,65.7v-0.4c0-1.9-0.4-5.6-6.1-5.6c-3.9,0-6.6,2-6.6,5.5c0,3.8,2.7,5.8,7,5.8
				c1.6,0,3-0.1,4.6-0.6v-1.2c-1.5,0.6-3,0.7-4.6,0.7c-4.4,0-5.1-2.8-5.1-4.1L148.9,65.7L148.9,65.7z M138.1,64.6
				c0.1-1.8,1.6-3.8,4.7-3.8c4,0,4.2,2.9,4.1,3.8H138.1z M171.5,60.2c-1.2-0.4-2.3-0.6-3.6-0.6c-3,0-5.1,1-5.1,2.7
				c0,1.8,2,2.5,3.9,3.1c2.1,0.6,3.4,1,3.4,2.4c0,1.3-1.4,2-3.5,2c-1.2,0-2.6-0.2-4-0.6l-0.1,1.3c1.4,0.4,2.7,0.5,4,0.5
				c4,0,5.5-1.6,5.5-3.1c0-1.9-2.1-2.7-3.5-3.1c-2.6-0.8-3.9-1.1-3.9-2.4c0-1.2,1.7-1.5,3.2-1.5c1.4,0,2.5,0.2,3.6,0.5L171.5,60.2z
				 M178.9,65.3c0,3.4,2.8,5.6,7.1,5.6c4.2,0,7.1-2.2,7.1-5.6s-2.8-5.7-7.1-5.7S178.9,61.9,178.9,65.3 M180.9,65.3
				c0-2.1,1.5-4.5,5.1-4.5s5.1,2.4,5.1,4.5s-1.5,4.5-5.1,4.5S180.9,67.4,180.9,65.3 M200.8,70.8h1.9V54.5h-1.9V70.8z M211.4,59.8
				v7.1c0,3.5,3.2,4,5.2,4c2.3,0,4.1-0.9,4.9-2.4l0,0v2.2h1.8l-0.1-2.5v-8.5h-1.9v6.4c0,2.1-2.1,3.7-4.7,3.7c-3.1,0-3.3-1.9-3.3-2.8
				v-7.2C213.3,59.8,211.4,59.8,211.4,59.8z M233.4,57.1v2.7h-3.1v1.1h3.1v6.8c0,1.2,0.1,3.2,3.5,3.2c0.5,0,1.3,0,2.1-0.2v-1.1
				c-0.6,0.2-1.2,0.2-1.9,0.2c-1.2,0-1.8-0.3-1.8-2.1V61h3.6v-1.1h-3.6v-3.2L233.4,57.1z M246.9,70.8h1.9v-11h-1.9V70.8z
				 M246.8,56.7h2.1V55h-2.1V56.7z M256.6,65.3c0,3.4,2.8,5.6,7.1,5.6c4.2,0,7.1-2.2,7.1-5.6s-2.8-5.7-7.1-5.7
				S256.6,61.9,256.6,65.3 M258.6,65.3c0-2.1,1.5-4.5,5.1-4.5s5.1,2.4,5.1,4.5s-1.5,4.5-5.1,4.5S258.6,67.4,258.6,65.3 M280.5,70.8
				v-6.4c0-2,1.9-3.6,4.5-3.6c3.8,0,3.8,1.9,3.8,3.2v6.8h1.9V64c0-1.7-0.4-4.3-5.4-4.3c-0.7,0-3.6,0.1-5,2.4h-0.1v-2.3h-1.7l0.1,2.5
				v8.4L280.5,70.8L280.5,70.8L280.5,70.8z M307.5,60.2c-1.2-0.4-2.3-0.6-3.6-0.6c-3,0-5.1,1-5.1,2.7c0,1.8,2,2.5,3.9,3.1
				c2.1,0.6,3.4,1,3.4,2.4c0,1.3-1.4,2-3.5,2c-1.2,0-2.6-0.2-4-0.6l-0.1,1.3c1.4,0.4,2.7,0.5,4,0.5c4,0,5.5-1.6,5.5-3.1
				c0-1.9-2.1-2.7-3.5-3.1c-2.6-0.8-3.9-1.1-3.9-2.4c0-1.2,1.7-1.5,3.2-1.5c1.4,0,2.5,0.2,3.6,0.5L307.5,60.2z"/>
		</g>
	</g>
	<g>
		<g>
			<defs>
				<rect id="SVGID_5_" y="0" width="308.7" height="70.9"/>
			</defs>
			<clipPath id="SVGID_6_">
				<use xlink:href="#SVGID_5_"  style="overflow:visible;"/>
			</clipPath>
			<polygon class="st2" points="141.5,8.2 184.6,49.6 227.8,8.2 180,38.6 			"/>
		</g>
	</g>
</g>
<g>
	<g>
		<g>
			<defs>
				<polygon id="SVGID_7_" points="141.6,0 180.7,30.9 229.2,0 				"/>
			</defs>
			<clipPath id="SVGID_8_">
				<use xlink:href="#SVGID_7_"  style="overflow:visible;"/>
			</clipPath>
			
				<linearGradient id="SVGID_9_" gradientUnits="userSpaceOnUse" x1="-5084.3848" y1="27.236" x2="-5083.3848" y2="27.236" gradientTransform="matrix(0 -34.1903 -34.1903 0 1116.608 -173804.0625)">
				<stop  offset="0" style="stop-color:#D7D6D5"/>
				<stop  offset="1" style="stop-color:#9D9F9B"/>
			</linearGradient>
			<rect x="141.6" y="0" class="st3" width="87.6" height="30.9"/>
		</g>
	</g>
</g>
</svg>
